<?xml version="1.0" encoding="UTF-8" standalone="no"?>
<!DOCTYPE svg PUBLIC "-//W3C//DTD SVG 1.1//EN" "http://www.w3.org/Graphics/SVG/1.1/DTD/svg11.dtd">
<svg width="495" height="199" viewBox="0 0 495 199" fill="none" xmlns="http://www.w3.org/2000/svg">
    <g clip-path="url(#clip0)">
        <path d="M286.337 128.584C270.248 128.584 260.261 139.376 260.261 153.051C260.261 159.687 265.556 174.636 301.351 191.73C303.229 192.6 306.245 194.679 313.686 194.679H330.981C330.981 187.572 324.679 187.774 310.871 187.506C310.803 168.603 307.05 157.341 294.582 145.275L289.285 145.811C308.189 154.526 314.222 165.854 314.222 180.669L333.997 165.788L320.121 150.436C315.966 144.806 305.977 128.584 286.337 128.584ZM270.382 184.422C266.762 184.556 263.947 186.635 263.947 191.327C263.947 191.327 277.757 191.461 287.543 188.512L277.622 183.216C275.276 184.02 272.863 184.355 270.382 184.422ZM325.282 147.822L331.785 145.275C327.763 128.315 319.249 115.646 306.781 108.138C306.781 120.54 313.083 134.014 325.282 147.822ZM334.935 108.138C329.506 118.663 329.506 130.93 334.935 140.716C340.231 130.93 340.231 118.663 334.935 108.138ZM315.094 155.129L333.997 165.854C340.365 165.854 347.74 165.049 347.74 160.089C347.74 152.113 335.875 142.46 327.227 145.275L315.094 155.129ZM247.19 154.793C247.19 168.468 268.237 168.468 268.237 154.793C268.237 141.656 247.19 141.656 247.19 154.793Z" fill="black"/>
    </g>
    <path d="M250.263 137.296H195.46V125.556L225.917 82.3009H196.182V66.9522H249.493V78.6441L219.037 121.947H250.263V137.296ZM308.043 137.296H266.28V66.9522H308.043V82.2046H285.285V93.2711H306.359V108.523H285.285V121.803H308.043V137.296ZM386.368 137.296H364.909L351.004 110.4L345.374 113.768V137.296H326.273V66.9522H345.374V97.5052C346.337 95.6126 348.277 92.6135 351.196 88.5077L365.968 66.9522H386.753L364.572 98.4675L386.368 137.296ZM465.752 102.028C465.752 113.864 462.849 122.862 457.043 129.02C451.237 135.179 442.737 138.258 431.542 138.258C420.508 138.258 412.04 135.163 406.138 128.972C400.268 122.781 397.333 113.768 397.333 101.932C397.333 90.2238 400.252 81.2905 406.09 75.1318C411.96 68.941 420.476 65.8456 431.639 65.8456C442.833 65.8456 451.318 68.9089 457.091 75.0355C462.865 81.1622 465.752 90.1596 465.752 102.028ZM417.348 102.028C417.348 115.628 422.08 122.429 431.542 122.429C436.354 122.429 439.914 120.777 442.224 117.473C444.565 114.169 445.736 109.021 445.736 102.028C445.736 95.0032 444.549 89.8228 442.176 86.4869C439.834 83.1188 436.322 81.4348 431.639 81.4348C422.112 81.4348 417.348 88.2992 417.348 102.028Z" fill="#1E69A6"/>
    <path d="M85.4394 37.6347C87.9282 36.1978 90.9946 36.1978 93.4834 37.6347L142.476 65.9207C144.965 67.3576 146.498 70.0132 146.498 72.887V129.459C146.498 132.333 144.965 134.988 142.476 136.425L93.4834 164.711C90.9946 166.148 87.9282 166.148 85.4394 164.711L36.4467 136.425C33.9579 134.988 32.4247 132.333 32.4247 129.459V72.887C32.4247 70.0132 33.9579 67.3576 36.4467 65.9207L85.4394 37.6347Z" fill="url(#paint0_linear)" stroke="#8ACBFF" stroke-opacity="0.8" stroke-width="8.04401"/>
    <path d="M81.3916 83.4031C70.4517 83.4031 63.6602 90.7416 63.6602 100.04C63.6602 104.553 67.2605 114.718 91.6017 126.342C92.8784 126.934 94.9296 128.347 99.9893 128.347H111.75C111.75 123.515 107.465 123.652 98.0748 123.47C98.0289 110.616 95.4766 102.958 86.9982 94.7532L83.3968 95.1175C96.2512 101.044 100.354 108.746 100.354 118.821L113.801 108.702L104.365 98.2627C101.539 94.4338 94.7469 83.4031 81.3916 83.4031ZM70.5425 121.373C68.081 121.464 66.1666 122.877 66.1666 126.069C66.1666 126.069 75.5573 126.159 82.2121 124.154L75.4654 120.553C73.8704 121.1 72.2294 121.327 70.5425 121.373ZM107.875 96.485L112.297 94.7532C109.562 83.2204 103.772 74.6053 95.2939 69.4997C95.2939 77.9332 99.5791 87.0953 107.875 96.485ZM114.439 69.4997C110.746 76.6565 110.746 84.9982 114.439 91.6529C118.04 84.9982 118.04 76.6565 114.439 69.4997ZM100.947 101.454L113.801 108.746C118.131 108.746 123.146 108.199 123.146 104.827C123.146 99.4027 115.078 92.8388 109.197 94.7532L100.947 101.454ZM54.7716 101.225C54.7716 110.524 69.0842 110.524 69.0842 101.225C69.0842 92.2918 54.7716 92.2918 54.7716 101.225Z" fill="white"/>
    <defs>
        <linearGradient id="paint0_linear" x1="144.261" y1="66.4832" x2="33.6561" y2="134.857" gradientUnits="userSpaceOnUse">
            <stop stop-color="#175587"/>
            <stop offset="1" stop-color="#2680C9"/>
        </linearGradient>
        <clipPath id="clip0">
            <rect x="247.189" y="108.068" width="1.0055" height="1.0055" fill="white"/>
        </clipPath>
    </defs>
</svg>
